<?xml version="1.0" encoding="UTF-8"?>
<!DOCTYPE svg PUBLIC "-//W3C//DTD SVG 1.1//EN" "http://www.w3.org/Graphics/SVG/1.1/DTD/svg11.dtd">
<!-- Creator: CorelDRAW 2018 (64-Bit) -->
<svg xmlns="http://www.w3.org/2000/svg" xml:space="preserve" width="87.0465mm" height="19.7928mm" version="1.1" style="shape-rendering:geometricPrecision; text-rendering:geometricPrecision; image-rendering:optimizeQuality; fill-rule:evenodd; clip-rule:evenodd"
viewBox="0 0 754.98 171.67"
 xmlns:xlink="http://www.w3.org/1999/xlink">
 <defs>
  <style type="text/css">
   <![CDATA[
    .fil0 {fill:white}
    .fil1 {fill:white;fill-rule:nonzero}
   ]]>
  </style>
 </defs>
 <g id="Слой_x0020_1">
  <metadata id="CorelCorpID_0Corel-Layer"/>
  <ellipse class="fil0" cx="85.47" cy="143.82" rx="20.31" ry="7.34"/>
  <path class="fil1" d="M384.5 25.44l-17.24 0 0 21.39 -7.63 0 0 -21.39 -17.24 0c-1.47,0 -2.48,0.34 -3.06,1.01 -0.6,0.68 -0.88,1.71 -0.88,3.07l0 17.31 -7.65 0 0 -17.31c0,-3.44 0.93,-5.95 2.75,-7.5 1.84,-1.56 4.78,-2.33 8.84,-2.33l6.11 0 -18.6 -19.18 9.68 0 18.46 19.18 1.59 0 0 -19.18 7.63 0 0 19.18 1.7 0 18.46 -19.18 9.59 0 -18.57 19.18 6.05 0c4.06,0 7.02,0.77 8.87,2.33 1.84,1.54 2.77,4.05 2.77,7.5l0 17.31 -7.7 0 0 -17.31c0,-0.9 -0.1,-1.63 -0.33,-2.21 -0.21,-0.58 -0.63,-1.04 -1.23,-1.38 -0.6,-0.33 -1.4,-0.49 -2.38,-0.49zm63.64 -15.09l0 6.96c0,3.41 -0.93,5.91 -2.75,7.48 -1.84,1.56 -4.78,2.35 -8.85,2.35l-19.78 0 0 9.87c0,1.4 0.28,2.42 0.84,3.09 0.56,0.67 1.56,0.99 2.99,0.99l25.95 0 0 5.74 -25.95 0c-4.03,0 -6.97,-0.77 -8.79,-2.33 -1.84,-1.54 -2.75,-4.05 -2.75,-7.5l0 -26.66c0,-3.44 0.91,-5.95 2.75,-7.5 1.82,-1.56 4.76,-2.33 8.79,-2.33l15.94 0c4.08,0 7.02,0.77 8.85,2.33 1.82,1.54 2.75,4.05 2.75,7.5zm-31.38 0l0 11 19.78 0c1.47,0 2.5,-0.33 3.08,-0.99 0.58,-0.67 0.88,-1.68 0.88,-3.04l0 -6.96c0,-1.37 -0.3,-2.39 -0.88,-3.07 -0.58,-0.67 -1.61,-1.01 -3.08,-1.01l-15.94 0c-1.44,0 -2.43,0.33 -2.99,0.99 -0.56,0.67 -0.84,1.69 -0.84,3.09zm39.12 36.48l18.15 -42.61c0.35,-0.79 0.77,-1.47 1.26,-2.05 0.49,-0.58 0.96,-1.01 1.38,-1.28 0.42,-0.28 0.93,-0.49 1.51,-0.64 0.59,-0.13 1.03,-0.22 1.31,-0.24 0.3,-0.02 0.66,-0.02 1.1,-0.02 0.42,0 0.75,0 1.03,0.02 0.26,0.01 0.7,0.1 1.28,0.24 0.58,0.15 1.08,0.36 1.5,0.64 0.44,0.27 0.91,0.7 1.42,1.28 0.51,0.58 0.94,1.26 1.28,2.05l18.15 42.61 -8.3 0 -16.15 -39.27 -0.47 0 -16.14 39.27 -8.31 0zm97.22 -36.48l0 6.96c0,3.41 -0.93,5.91 -2.75,7.48 -1.84,1.56 -4.78,2.35 -8.85,2.35l-19.78 0 0 9.87c0,1.4 0.28,2.42 0.84,3.09 0.56,0.67 1.56,0.99 2.99,0.99l25.95 0 0 5.74 -25.95 0c-4.03,0 -6.97,-0.77 -8.79,-2.33 -1.84,-1.54 -2.75,-4.05 -2.75,-7.5l0 -26.66c0,-3.44 0.91,-5.95 2.75,-7.5 1.82,-1.56 4.76,-2.33 8.79,-2.33l15.94 0c4.08,0 7.02,0.77 8.85,2.33 1.82,1.54 2.75,4.05 2.75,7.5zm-31.38 0l0 11 19.78 0c1.47,0 2.5,-0.33 3.08,-0.99 0.58,-0.67 0.88,-1.68 0.88,-3.04l0 -6.96c0,-1.37 -0.3,-2.39 -0.88,-3.07 -0.58,-0.67 -1.61,-1.01 -3.08,-1.01l-15.94 0c-1.44,0 -2.43,0.33 -2.99,0.99 -0.56,0.67 -0.84,1.69 -0.84,3.09zm70.24 36.48l-28.3 0 0 -5.74 25.69 0 0 -0.34 -14 -15.05c-1.29,-1.34 -1.94,-2.51 -1.94,-3.52 0,-1.07 0.65,-2.23 1.94,-3.44l13.63 -12.13 0 -0.34 -25.32 0 0 -5.74 28.3 0c1.03,0 1.89,0.04 2.59,0.13 0.7,0.09 1.37,0.24 2.01,0.48 0.63,0.22 1.1,0.59 1.4,1.08 0.31,0.49 0.45,1.1 0.45,1.83 0,1.1 -0.32,2.12 -0.94,3.07 -0.63,0.93 -1.56,1.96 -2.78,3.06l-13.23 11.83 0 0.36 13.48 14.83c2.33,2.6 3.48,4.67 3.48,6.22 0,0.58 -0.1,1.07 -0.33,1.5 -0.21,0.41 -0.51,0.74 -0.86,0.99 -0.37,0.25 -0.84,0.44 -1.42,0.59 -0.58,0.13 -1.15,0.24 -1.75,0.28 -0.58,0.05 -1.28,0.06 -2.1,0.06zm57.95 0l-7.68 0 0 -21.14 -23.7 0 0 21.14 -7.63 0 0 -46.31 7.63 0 0 19.43 23.7 0 0 -19.43 7.68 0 0 46.31zm13.61 -9.83l0 -7.87c0,-3.43 0.91,-5.91 2.73,-7.47 1.84,-1.54 4.78,-2.33 8.85,-2.33l19.88 0 0 -8.99c0,-1.37 -0.3,-2.39 -0.89,-3.07 -0.6,-0.67 -1.61,-1.01 -3.05,-1.01l-25.43 0 0 -5.74 25.43 0c4.02,0 6.96,0.77 8.79,2.33 1.84,1.54 2.75,4.05 2.75,7.5l0 26.66c0,3.44 -0.91,5.95 -2.75,7.5 -1.82,1.56 -4.76,2.33 -8.79,2.33l-15.94 0c-4.08,0 -7.02,-0.77 -8.85,-2.33 -1.82,-1.54 -2.73,-4.05 -2.73,-7.5zm31.46 0l0 -11.92 -19.88 0c-1,0 -1.78,0.16 -2.38,0.5 -0.61,0.33 -1.01,0.79 -1.24,1.35 -0.21,0.56 -0.33,1.29 -0.33,2.2l0 7.87c0,1.37 0.3,2.39 0.88,3.06 0.58,0.68 1.61,1.03 3.08,1.03l15.94 0c1.43,0 2.45,-0.34 3.05,-1.03 0.59,-0.67 0.89,-1.69 0.89,-3.06zm59.9 9.83l-7.63 0 0 -18.52 -4.25 0 -19.58 18.52 -9.8 0 19.43 -18.52 -5.69 0c-4.06,0 -7.02,-0.79 -8.84,-2.35 -1.84,-1.57 -2.75,-4.07 -2.75,-7.48l0 -8.13c0,-3.44 0.91,-5.95 2.75,-7.5 1.82,-1.56 4.78,-2.33 8.84,-2.33l15.94 0c4.04,0 6.98,0.77 8.82,2.33 1.86,1.54 2.77,4.05 2.77,7.5l0 36.48zm-11.59 -40.56l-15.94 0c-0.98,0 -1.79,0.16 -2.38,0.49 -0.59,0.34 -1.01,0.79 -1.22,1.38 -0.23,0.58 -0.33,1.31 -0.33,2.21l0 8.13c0,1.37 0.28,2.37 0.86,3.06 0.59,0.68 1.61,1.02 3.08,1.02l19.9 0 0 -12.21c0,-1.37 -0.3,-2.39 -0.89,-3.07 -0.61,-0.67 -1.63,-1.01 -3.06,-1.01z"/>
  <path class="fil1" d="M246.56 0.52l59 0 0 15.99 -59 0c-4.3,0 -7.13,0.85 -8.48,2.56 -1.35,1.7 -2.03,4.84 -2.03,9.45l0 112.97c0,4.68 0.68,7.9 2.03,9.64 1.35,1.74 4.18,2.63 8.48,2.63l59 0 0 15.87 -59 0c-10.43,0 -17.83,-2.13 -22.29,-6.43 -4.42,-4.26 -6.65,-11.5 -6.65,-21.72l0 -112.97c0,-10.11 2.23,-17.3 6.65,-21.6 4.46,-4.26 11.86,-6.39 22.29,-6.39z"/>
  <path class="fil1" d="M418.01 131.61l0 16.81c0,7.43 -2.11,12.84 -6.25,16.17 -4.18,3.36 -10.87,5.03 -20.14,5.03l-36.26 0c-9.16,0 -15.84,-1.67 -19.98,-5.03 -4.18,-3.33 -6.25,-8.74 -6.25,-16.17l0 -57.51c0,-7.43 2.07,-12.84 6.25,-16.17 4.14,-3.36 10.83,-5.03 19.98,-5.03l36.26 0c9.28,0 15.96,1.67 20.14,5.03 4.14,3.33 6.25,8.74 6.25,16.17l0 10.79c0,3.81 -0.68,6.88 -1.95,9.22 -1.27,2.37 -3.42,4.26 -6.45,5.7 3.03,1.5 5.18,3.43 6.45,5.8 1.27,2.4 1.95,5.44 1.95,9.19zm-71.37 16.81c0,3.01 0.64,5.22 1.91,6.66 1.27,1.44 3.54,2.14 6.81,2.14l36.26 0c3.34,0 5.69,-0.74 7.01,-2.21 1.31,-1.44 1.99,-3.65 1.99,-6.6l0 -16.81c0,-2.72 -0.68,-4.87 -2.03,-6.4 -1.35,-1.54 -3.7,-2.31 -6.97,-2.31l-44.98 0 0 25.52zm0 -57.51l0 19.6 44.98 0c3.34,0 5.69,-0.74 7.01,-2.24 1.31,-1.5 1.99,-3.68 1.99,-6.56l0 -10.79c0,-2.95 -0.68,-5.16 -1.99,-6.63 -1.31,-1.44 -3.66,-2.18 -7.01,-2.18l-36.26 0c-3.26,0 -5.53,0.7 -6.81,2.15 -1.27,1.44 -1.91,3.65 -1.91,6.66z"/>
  <path class="fil1" d="M532.24 169.62l-17.36 0 0 -39.96 -9.67 0 -44.54 39.96 -22.29 0 44.19 -39.96 -12.94 0c-9.24,0 -15.96,-1.7 -20.1,-5.06 -4.18,-3.39 -6.25,-8.77 -6.25,-16.14l0 -17.55c0,-7.43 2.07,-12.84 6.25,-16.17 4.14,-3.36 10.87,-5.03 20.1,-5.03l36.26 0c9.2,0 15.88,1.67 20.06,5.03 4.22,3.33 6.29,8.74 6.29,16.17l0 78.71zm-26.35 -87.51l-36.26 0c-2.23,0 -4.06,0.35 -5.41,1.06 -1.35,0.74 -2.31,1.7 -2.79,2.98 -0.52,1.25 -0.76,2.82 -0.76,4.77l0 17.55c0,2.95 0.64,5.12 1.95,6.6 1.35,1.47 3.66,2.21 7.01,2.21l45.26 0 0 -26.35c0,-2.95 -0.68,-5.16 -2.03,-6.63 -1.39,-1.44 -3.7,-2.18 -6.97,-2.18z"/>
  <path class="fil1" d="M623.94 169.62l-64.37 0 0 -12.39 58.44 0 0 -0.74 -31.85 -32.47c-2.95,-2.88 -4.42,-5.41 -4.42,-7.59 0,-2.31 1.47,-4.8 4.42,-7.43l31.01 -26.16 0 -0.74 -57.6 0 0 -12.39 64.37 0c2.35,0 4.3,0.1 5.89,0.29 1.59,0.19 3.11,0.51 4.58,1.02 1.43,0.48 2.51,1.28 3.18,2.34 0.72,1.06 1.04,2.37 1.04,3.94 0,2.37 -0.72,4.58 -2.15,6.63 -1.43,2.02 -3.54,4.23 -6.33,6.6l-30.1 25.52 0 0.77 30.65 31.99c5.29,5.6 7.92,10.09 7.92,13.42 0,1.25 -0.24,2.31 -0.76,3.23 -0.48,0.9 -1.15,1.6 -1.95,2.14 -0.84,0.54 -1.91,0.96 -3.22,1.28 -1.31,0.29 -2.63,0.51 -3.98,0.61 -1.31,0.1 -2.91,0.13 -4.78,0.13z"/>
  <path class="fil1" d="M666.01 69.72l17.47 0 0 40.79 45.14 0c9.16,0 15.84,1.67 20.06,5.03 4.18,3.33 6.29,8.71 6.29,16.07l0 16.81c0,7.43 -2.11,12.84 -6.29,16.17 -4.22,3.36 -10.91,5.03 -20.06,5.03l-36.27 0c-9.28,0 -15.96,-1.67 -20.14,-5.03 -4.14,-3.33 -6.21,-8.74 -6.21,-16.17l0 -78.71zm26.35 87.51l36.27 0c3.26,0 5.57,-0.74 6.93,-2.21 1.35,-1.44 2.03,-3.65 2.03,-6.6l0 -16.81c0,-2.91 -0.68,-5.12 -2.03,-6.56 -1.35,-1.44 -3.66,-2.14 -6.93,-2.14l-45.14 0 0 25.52c0,3.01 0.64,5.22 1.91,6.66 1.31,1.44 3.62,2.14 6.97,2.14z"/>
  <g id="_2482776474512">
   <path class="fil1" d="M95.99 143.87c0,3.22 -22,3.22 -22,0l7.7 -61.57c0.17,-1.09 1.59,-1.91 3.29,-1.91 1.7,0 3.13,0.83 3.29,1.91l7.7 61.57z"/>
   <g>
    <path class="fil1" d="M84.99 68.25c-3.21,0 -5.82,-2.6 -5.82,-5.82 0,-3.21 2.6,-5.82 5.82,-5.82 3.21,0 5.82,2.6 5.82,5.82 0,3.21 -2.6,5.82 -5.82,5.82z"/>
    <g>
     <g>
      <path class="fil1" d="M120.4 35.94c2.85,2.79 4.79,5.8 6.75,9.52 3.96,7.55 5.44,16.28 3.42,24.63 -1.7,7.01 -5.5,13.23 -10.17,18.66 -2.38,2.77 1.63,6.82 4.03,4.03 8.16,-9.49 13.88,-21.32 12.57,-34.11 -0.84,-8.18 -4.09,-15.98 -9.02,-22.54 -1.1,-1.46 -2.24,-2.94 -3.55,-4.22 -2.63,-2.57 -6.66,1.46 -4.03,4.03z"/>
     </g>
    </g>
    <g>
     <g>
      <path class="fil1" d="M107.48 43.63c2.76,2.81 5.16,6.85 6.57,11.01 3.31,9.75 0.19,19.13 -6.57,26.61 -2.46,2.72 1.57,6.76 4.03,4.03 7.81,-8.64 11.82,-19.76 8.34,-31.21 -1.59,-5.23 -4.47,-10.53 -8.34,-14.47 -2.58,-2.62 -6.61,1.41 -4.03,4.03z"/>
     </g>
    </g>
    <g>
     <g>
      <path class="fil1" d="M94.56 51.51c1.75,1.56 3.04,3.46 3.96,5.79 2.28,5.75 -0.03,11.28 -3.96,15.68 -2.44,2.73 1.58,6.78 4.03,4.03 5.02,-5.61 8.13,-12.86 5.73,-20.37 -1.08,-3.37 -3.07,-6.8 -5.73,-9.18 -2.73,-2.44 -6.78,1.58 -4.03,4.03z"/>
     </g>
    </g>
   </g>
   <g>
    <g>
     <g>
      <path class="fil1" d="M49.59 88.75c-2.85,-2.79 -4.79,-5.8 -6.75,-9.52 -3.96,-7.55 -5.44,-16.28 -3.42,-24.63 1.69,-7.01 5.5,-13.23 10.17,-18.66 2.38,-2.77 -1.63,-6.82 -4.03,-4.03 -8.16,9.49 -13.88,21.32 -12.57,34.11 0.84,8.18 4.09,15.98 9.02,22.54 1.1,1.46 2.24,2.94 3.55,4.22 2.63,2.57 6.66,-1.46 4.03,-4.03z"/>
     </g>
    </g>
    <g>
     <g>
      <path class="fil1" d="M62.51 81.06c-2.76,-2.81 -5.16,-6.85 -6.57,-11.01 -3.31,-9.75 -0.19,-19.13 6.57,-26.61 2.46,-2.72 -1.57,-6.76 -4.03,-4.03 -7.81,8.64 -11.82,19.76 -8.34,31.21 1.59,5.23 4.47,10.54 8.34,14.47 2.58,2.62 6.61,-1.41 4.03,-4.03z"/>
     </g>
    </g>
    <g>
     <g>
      <path class="fil1" d="M75.43 73.18c-1.75,-1.56 -3.04,-3.46 -3.96,-5.79 -2.28,-5.75 0.03,-11.28 3.96,-15.68 2.44,-2.73 -1.58,-6.78 -4.03,-4.03 -5.02,5.62 -8.13,12.86 -5.73,20.37 1.08,3.37 3.07,6.8 5.73,9.18 2.73,2.44 6.77,-1.58 4.03,-4.03z"/>
     </g>
    </g>
   </g>
  </g>
  <path class="fil0" d="M23.72 1.88l122.34 0c13.05,0 23.72,10.68 23.72,23.72l0 122.34c0,13.05 -10.68,23.72 -23.72,23.72l-122.34 0c-13.05,0 -23.72,-10.68 -23.72,-23.72l0 -122.34c0,-13.05 10.68,-23.72 23.72,-23.72zm6.01 8.33l110.33 0c11.77,0 21.39,9.63 21.39,21.39l0 110.33c0,11.77 -9.63,21.39 -21.39,21.39l-110.33 0c-11.77,0 -21.39,-9.63 -21.39,-21.39l0 -110.33c0,-11.77 9.63,-21.39 21.39,-21.39z"/>
 </g>
</svg>
